<svg xmlns="http://www.w3.org/2000/svg"  viewBox="0 0 64 64" width="64px" height="64px"><path d="M 1 14 A 1 1 0 0 0 0.05078125 15.316406 L 3.6113281 26 L 2.9394531 26 A 2.94 2.94 0 0 0 1.3515625 31.414062 L 2.8710938 32.390625 L 0.171875 36.445312 A 1 1 0 0 0 1 38 L 3 38 A 1 1 0 0 0 3.5996094 37.800781 L 11.599609 31.800781 A 1 1 0 0 0 11 30 L 5 30 A 1 1 0 0 0 4.1679688 30.445312 L 3.9804688 30.726562 L 2.4335938 29.726562 A 0.94 0.94 0 0 1 2.9394531 28 L 49.154297 28 A 6.977 6.977 0 0 1 52.755859 29 L 52.5 29 A 2.5 2.5 0 0 0 52.5 34 L 59.775391 34 C 59.789391 34 59.801453 33.993187 59.814453 33.992188 L 61.314453 34.492188 A 1 1 0 0 1 61.998047 35.441406 L 61.998047 35.558594 A 1 1 0 0 1 61.314453 36.507812 L 59.146484 37.230469 A 14.97 14.97 0 0 1 54.400391 38 L 39.332031 38 L 39.599609 37.800781 A 1 1 0 0 0 39 36 L 28 36 A 1 1 0 0 0 27.263672 36.324219 L 25.726562 38 L 19.699219 38 A 14.973 14.973 0 0 1 11.589844 35.617188 L 10.951172 35.207031 A 1.0002516 1.0002516 0 1 0 9.8691406 36.890625 L 10.505859 37.300781 A 16.972 16.972 0 0 0 19.699219 40 L 23.894531 40 L 16.263672 48.324219 A 1 1 0 0 0 17 50 L 23 50 A 1 1 0 0 0 23.599609 49.800781 L 36.667969 40 L 54.400391 40 A 16.967 16.967 0 0 0 59.775391 39.126953 L 61.945312 38.404297 A 3 3 0 0 0 64 35.558594 L 64 35.441406 A 3 3 0 0 0 61.949219 32.599609 L 59.556641 31.800781 A 6.975 6.975 0 0 1 56.306641 29.533203 L 56.183594 29.378906 A 8.955 8.955 0 0 0 49.154297 26 L 39.277344 26 L 24.515625 17.142578 A 1 1 0 0 0 24 17 L 19 17 A 1 1 0 0 0 18.292969 18.707031 L 25.585938 26 L 13.535156 26 L 5.8359375 14.445312 A 1 1 0 0 0 5 14 L 1 14 z M 2.3867188 16 L 4.4648438 16 L 11.130859 26 L 5.7207031 26 L 2.3867188 16 z M 21.414062 19 L 23.722656 19 L 35.390625 26 L 28.414062 26 L 21.414062 19 z M 16.970703 31 A 1 1 0 0 0 16 32 L 16 33 A 1 1 0 0 0 18 33 L 18 32 A 1 1 0 0 0 16.970703 31 z M 20.970703 31 A 1 1 0 0 0 20 32 L 20 33 A 1 1 0 0 0 22 33 L 22 32 A 1 1 0 0 0 20.970703 31 z M 24.970703 31 A 1 1 0 0 0 24 32 L 24 33 A 1 1 0 0 0 26 33 L 26 32 A 1 1 0 0 0 24.970703 31 z M 28.970703 31 A 1 1 0 0 0 28 32 L 28 33 A 1 1 0 0 0 30 33 L 30 32 A 1 1 0 0 0 28.970703 31 z M 32.970703 31 A 1 1 0 0 0 32 32 L 32 33 A 1 1 0 0 0 34 33 L 34 32 A 1 1 0 0 0 32.970703 31 z M 36.970703 31 A 1 1 0 0 0 36 32 L 36 33 A 1 1 0 0 0 38 33 L 38 32 A 1 1 0 0 0 36.970703 31 z M 40.970703 31 A 1 1 0 0 0 40 32 L 40 33 A 1 1 0 0 0 41 34 A 1 1 0 0 0 42 33 L 42 32 A 1 1 0 0 0 40.970703 31 z M 44.970703 31 A 1 1 0 0 0 44 32 L 44 33 A 1 1 0 0 0 46 33 L 46 32 A 1 1 0 0 0 44.970703 31 z M 52.5 31 L 54.945312 31 A 9.072 9.072 0 0 0 55.955078 32 L 52.5 32 A 0.5 0.5 0 0 1 52 31.5 A 0.5 0.5 0 0 1 52.5 31 z M 5.5351562 32 L 8 32 L 3.0703125 35.699219 L 5.5351562 32 z M 28.439453 38 L 36 38 L 22.667969 48 L 19.273438 48 L 28.439453 38 z"/></svg>